<?xml version="1.0" encoding="UTF-8"?>
<!--
  Kanan Remodelaciones · Lockup Vertical (Stacked) · Base
  Símbolo arriba + KANAN + REMODELACIONES · Todo centrado horizontalmente
  Ideal para: avatars cuadrados, stickers, Instagram, Google Business Profile
-->
<svg xmlns="http://www.w3.org/2000/svg"
     viewBox="0 0 284.7600 269.0060"
     width="284.7600"
     height="269.0060">
  <g transform="translate(78.3800 0.0000)">
    <rect x="0" y="0" width="32" height="160" fill="#1F1D1B"/>
    <rect x="96" y="0" width="32" height="32" fill="#1F1D1B"/>
    <rect x="64" y="32" width="32" height="32" fill="#1F1D1B"/>
    <rect x="32" y="64" width="32" height="32" fill="#1F1D1B"/>
    <rect x="64" y="96" width="32" height="32" fill="#1F1D1B"/>
    <rect x="96" y="128" width="32" height="32" fill="#1F1D1B"/>
  </g>
  <g transform="translate(0.0000 186.0000)" fill="#1F1D1B">
    <path transform="translate(0.0000 63.2160) scale(0.072000 -0.072000)" d="M74 0V688H295V394L540 688H814L567 405L819 0H558L412 257L295 144V0Z"/>
    <path transform="translate(58.1760 63.2160) scale(0.072000 -0.072000)" d="M10 0 261 688H518L769 0H535L506 97H265L236 0ZM311 251H461L428 361Q424 373 419.0 390.0Q414 407 409.0 426.0Q404 445 399.0 463.5Q394 482 390 496H382Q378 478 371.5 455.0Q365 432 358.0 407.5Q351 383 344 361Z"/>
    <path transform="translate(112.3920 63.2160) scale(0.072000 -0.072000)" d="M74 0V688H262L476 441Q485 431 500.0 412.0Q515 393 530.5 373.5Q546 354 554 342L559 344Q558 372 558 400V688H759V0H572L331 275Q314 295 302.0 311.5Q290 328 279 343L274 341Q275 322 275 303V0Z"/>
    <path transform="translate(170.5680 63.2160) scale(0.072000 -0.072000)" d="M10 0 261 688H518L769 0H535L506 97H265L236 0ZM311 251H461L428 361Q424 373 419.0 390.0Q414 407 409.0 426.0Q404 445 399.0 463.5Q394 482 390 496H382Q378 478 371.5 455.0Q365 432 358.0 407.5Q351 383 344 361Z"/>
    <path transform="translate(224.7840 63.2160) scale(0.072000 -0.072000)" d="M74 0V688H262L476 441Q485 431 500.0 412.0Q515 393 530.5 373.5Q546 354 554 342L559 344Q558 372 558 400V688H759V0H572L331 275Q314 295 302.0 311.5Q290 328 279 343L274 341Q275 322 275 303V0Z"/>
  </g>
  <g transform="translate(73.3000 259.2160)" fill="#1F1D1B">
    <path transform="translate(0.0000 8.5800) scale(0.011000 -0.011000)" d="M195 0H84V698H345Q445 698 497.5 642.0Q550 586 550 488Q550 408 511.0 356.0Q472 304 399 292L560 0H436L288 282H195ZM329 372Q433 372 433 467V510Q433 605 329 605H195V372Z"/>
    <path transform="translate(10.1200 8.5800) scale(0.011000 -0.011000)" d="M86 0V698H523V604H198V401H511V307H198V94H523V0Z"/>
    <path transform="translate(20.2400 8.5800) scale(0.011000 -0.011000)" d="M445 334 448 544H440L300 185L160 544H152L155 334V0H56V698H193L300 421H307L415 698H544V0H445Z"/>
    <path transform="translate(30.3600 8.5800) scale(0.011000 -0.011000)" d="M300 -12Q234 -12 185.5 12.5Q137 37 105.5 83.0Q74 129 59.0 196.0Q44 263 44 349Q44 434 59.0 501.5Q74 569 105.5 615.0Q137 661 185.5 685.5Q234 710 300 710Q366 710 414.5 685.5Q463 661 494.5 615.0Q526 569 541.0 501.5Q556 434 556 349Q556 263 541.0 196.0Q526 129 494.5 83.0Q463 37 414.5 12.5Q366 -12 300 -12ZM300 81Q375 81 406.0 137.5Q437 194 437 291V408Q437 504 406.0 560.5Q375 617 300 617Q225 617 194.0 560.5Q163 504 163 408V290Q163 194 194.0 137.5Q225 81 300 81Z"/>
    <path transform="translate(40.4800 8.5800) scale(0.011000 -0.011000)" d="M82 698H290Q424 698 488.5 609.0Q553 520 553 349Q553 178 488.5 89.0Q424 0 290 0H82ZM283 92Q360 92 397.5 143.5Q435 195 435 291V407Q435 503 397.5 554.5Q360 606 283 606H193V92Z"/>
    <path transform="translate(50.6000 8.5800) scale(0.011000 -0.011000)" d="M86 0V698H523V604H198V401H511V307H198V94H523V0Z"/>
    <path transform="translate(60.7200 8.5800) scale(0.011000 -0.011000)" d="M108 0V698H220V94H538V0Z"/>
    <path transform="translate(70.8400 8.5800) scale(0.011000 -0.011000)" d="M462 0 409 186H187L134 0H20L224 698H377L581 0ZM302 585H294L208 279H388Z"/>
    <path transform="translate(80.9600 8.5800) scale(0.011000 -0.011000)" d="M320 -12Q187 -12 122.5 82.0Q58 176 58 349Q58 522 122.5 616.0Q187 710 320 710Q371 710 408.5 696.5Q446 683 473.0 659.5Q500 636 518.5 604.5Q537 573 549 537L448 503Q440 527 430.0 548.0Q420 569 405.0 584.0Q390 599 369.5 608.0Q349 617 319 617Q245 617 211.0 560.5Q177 504 177 408V290Q177 194 211.0 137.5Q245 81 319 81Q349 81 369.5 90.0Q390 99 405.0 114.0Q420 129 430.0 150.0Q440 171 448 195L549 161Q537 125 518.5 93.5Q500 62 473.0 38.5Q446 15 408.5 1.5Q371 -12 320 -12Z"/>
    <path transform="translate(91.0800 8.5800) scale(0.011000 -0.011000)" d="M80 0V85H244V613H80V698H520V613H356V85H520V0Z"/>
    <path transform="translate(101.2000 8.5800) scale(0.011000 -0.011000)" d="M300 -12Q234 -12 185.5 12.5Q137 37 105.5 83.0Q74 129 59.0 196.0Q44 263 44 349Q44 434 59.0 501.5Q74 569 105.5 615.0Q137 661 185.5 685.5Q234 710 300 710Q366 710 414.5 685.5Q463 661 494.5 615.0Q526 569 541.0 501.5Q556 434 556 349Q556 263 541.0 196.0Q526 129 494.5 83.0Q463 37 414.5 12.5Q366 -12 300 -12ZM300 81Q375 81 406.0 137.5Q437 194 437 291V408Q437 504 406.0 560.5Q375 617 300 617Q225 617 194.0 560.5Q163 504 163 408V290Q163 194 194.0 137.5Q225 81 300 81Z"/>
    <path transform="translate(111.3200 8.5800) scale(0.011000 -0.011000)" d="M179 537H170V0H72V698H216L421 161H430V698H528V0H384Z"/>
    <path transform="translate(121.4400 8.5800) scale(0.011000 -0.011000)" d="M86 0V698H523V604H198V401H511V307H198V94H523V0Z"/>
    <path transform="translate(131.5600 8.5800) scale(0.011000 -0.011000)" d="M294 -12Q203 -12 141.0 20.0Q79 52 39 105L111 174Q151 126 196.0 103.5Q241 81 298 81Q364 81 399.5 111.0Q435 141 435 197Q435 242 409.0 266.5Q383 291 320 302L244 314Q194 322 160.0 340.5Q126 359 105.0 384.5Q84 410 74.5 441.5Q65 473 65 508Q65 607 129.0 658.5Q193 710 305 710Q388 710 446.5 683.5Q505 657 541 609L471 539Q442 574 402.5 595.5Q363 617 305 617Q243 617 210.5 590.5Q178 564 178 513Q178 470 203.5 445.5Q229 421 294 410L368 397Q462 380 505.0 328.5Q548 277 548 203Q548 155 531.5 115.0Q515 75 482.5 47.0Q450 19 402.5 3.5Q355 -12 294 -12Z"/>
  </g>
</svg>
